<svg width="90" height="73" viewBox="0 0 90 73" fill="none" xmlns="http://www.w3.org/2000/svg">
<g clip-path="url(#clip0_67_488)">
<path d="M89.8848 64.2522C89.241 62.1745 86.2691 59.1382 86.6303 55.0814C86.9914 51.0262 90.1765 41.7617 89.3499 37.8072C88.5232 33.8528 84.3779 22.2264 73.6603 20.4682C62.9472 18.7106 55.2528 21.6281 51.1437 21.4408C47.0376 21.2529 46.2906 18.1101 41.7516 18.1507C35.8925 18.2056 34.8838 20.6675 30.7414 21.9879C27.704 22.957 18.1908 22.9453 18.1908 22.9453C18.1908 22.9453 15.4691 19.3503 14.6395 20.6675C13.8099 21.9853 12.7445 25.3415 12.7445 25.3415C12.7445 25.3415 7.65269 27.1386 7.18109 28.0997C6.70912 29.0607 6.06125 30.619 6.06125 30.619C6.06125 30.619 0.66875 32.0541 0.0773439 33.3721C-0.5137 34.6893 2.44658 37.8039 3.39305 38.8856C4.33952 39.9668 15.3496 40.2034 17.0945 41.5048C18.8387 42.8081 23.7234 43.786 26.4513 44.2601C31.571 45.1523 33.8211 55.4471 35.1223 66.8335C33.5826 68.1536 30.8601 69.3224 30.7128 72.9578H47.4031C47.4031 72.9578 47.6251 70.5308 47.908 67.5253C48.1868 64.5197 53.2355 53.1432 53.2355 53.1432C53.2355 53.1432 56.9036 56.0198 59.3912 56.1433C59.1575 58.4189 60.2063 60.8401 60.2063 60.8401C60.2063 60.8401 62.3548 63.4521 64.4432 65.5193C60.6201 67.1153 60.7314 69.9303 60.7314 69.9303L74.8995 70.0416C74.8995 70.0416 76.3194 67.0479 76.3194 64.6488C78.2181 67.4076 81.8864 68.4855 81.8864 68.4855L79.6047 72.9578H88.2622C88.2676 72.9548 90.5291 66.3282 89.8848 64.2522ZM10.3089 31.2452C9.68605 31.2452 9.18441 30.7341 9.18441 30.1064C9.18441 29.4803 9.68605 28.9669 10.3089 28.9669C10.9282 28.9669 11.4346 29.4773 11.4346 30.1064C11.4346 30.7399 10.9253 31.2452 10.3089 31.2452Z" fill="black"/>
<path d="M52.5378 43.2761C64.3429 43.2761 73.9128 33.5884 73.9128 21.6381C73.9128 9.68769 64.3429 0 52.5378 0C40.7328 0 31.1628 9.68769 31.1628 21.6381C31.1628 33.5884 40.7328 43.2761 52.5378 43.2761Z" fill="white"/>
<path d="M56.7753 30.6349C57.561 30.6349 58.3146 30.9508 58.8701 31.5133C59.4257 32.0757 59.7378 32.8385 59.7378 33.6339C59.7378 32.8385 60.05 32.0757 60.6055 31.5133C61.1611 30.9508 61.9146 30.6349 62.7004 30.6349C61.9146 30.6349 61.1611 30.319 60.6055 29.7565C60.05 29.1942 59.7378 28.4314 59.7378 27.636C59.7378 28.4314 59.4257 29.1942 58.8701 29.7565C58.3146 30.319 57.561 30.6349 56.7753 30.6349ZM56.7753 12.6412C57.561 12.6412 58.3146 12.9571 58.8701 13.5196C59.4257 14.0819 59.7378 14.8447 59.7378 15.6401C59.7378 14.8447 60.05 14.0819 60.6055 13.5196C61.1611 12.9571 61.9146 12.6412 62.7004 12.6412C61.9146 12.6412 61.1611 12.3253 60.6055 11.7628C60.05 11.2004 59.7378 10.4376 59.7378 9.64221C59.7378 10.4376 59.4257 11.2004 58.8701 11.7628C58.3146 12.3253 57.561 12.6412 56.7753 12.6412ZM46.4065 30.6349C46.4065 28.2488 47.3429 25.9604 49.0097 24.2732C50.6764 22.5859 52.9369 21.638 55.294 21.638C52.9369 21.638 50.6764 20.6902 49.0097 19.003C47.3429 17.3157 46.4065 15.0273 46.4065 12.6412C46.4065 15.0273 45.4702 17.3157 43.8035 19.003C42.1367 20.6902 39.8761 21.638 37.519 21.638C39.8761 21.638 42.1367 22.5859 43.8035 24.2732C45.4702 25.9604 46.4065 28.2488 46.4065 30.6349Z" fill="black"/>
</g>
<defs>
<clipPath id="clip0_67_488">
<rect width="90" height="73" fill="white"/>
</clipPath>
</defs>
</svg>
