<svg width="19" height="18" viewBox="0 0 19 18" fill="none" xmlns="http://www.w3.org/2000/svg">
<path d="M14.5 5V2C14.5 1.73478 14.3946 1.48043 14.2071 1.29289C14.0196 1.10536 13.7652 1 13.5 1H3.5C2.96957 1 2.46086 1.21071 2.08579 1.58579C1.71071 1.96086 1.5 2.46957 1.5 3M1.5 3C1.5 3.53043 1.71071 4.03914 2.08579 4.41421C2.46086 4.78929 2.96957 5 3.5 5H15.5C15.7652 5 16.0196 5.10536 16.2071 5.29289C16.3946 5.48043 16.5 5.73478 16.5 6V9M1.5 3V15C1.5 15.5304 1.71071 16.0391 2.08579 16.4142C2.46086 16.7893 2.96957 17 3.5 17H15.5C15.7652 17 16.0196 16.8946 16.2071 16.7071C16.3946 16.5196 16.5 16.2652 16.5 16V13" stroke="black" stroke-width="1.5" stroke-linecap="round" stroke-linejoin="round"/>
<path d="M17.5 9V13H13.5C12.9696 13 12.4609 12.7893 12.0858 12.4142C11.7107 12.0391 11.5 11.5304 11.5 11C11.5 10.4696 11.7107 9.96086 12.0858 9.58579C12.4609 9.21071 12.9696 9 13.5 9H17.5Z" stroke="black" stroke-width="1.5" stroke-linecap="round" stroke-linejoin="round"/>
</svg>
